# MagicaVoxel @ Ephtracy

# material
mtllib cart.mtl
usemtl palette

# normals
vn -1 0 0
vn 1 0 0
vn 0 0 1
vn 0 0 -1
vn 0 -1 0
vn 0 1 0

# texcoords
vt 0.00195312 0.5
vt 0.00585938 0.5
vt 0.00976562 0.5

# verts
v -40 35 -0
v -40 35 -5
v -40 45 -0
v -40 45 -5
v -40 50 -0
v -40 50 -5
v -35 5 5
v -35 5 -0
v -35 20 5
v -35 20 -0
v -35 30 -0
v -35 30 -5
v -35 35 -0
v -35 35 -5
v -30 0 5
v -30 0 -0
v -30 5 5
v -30 5 -0
v -30 20 5
v -30 20 -0
v -30 25 5
v -30 25 -0
v -30 25 -5
v -30 30 -0
v -30 30 -5
v -25 10 -0
v -25 10 -5
v -25 25 -0
v -25 25 -5
v -20 10 5
v -20 10 -0
v -20 15 5
v -20 15 -0
v 5 5 5
v 5 5 -0
v 5 10 -0
v 5 20 5
v 5 20 -0
v 10 0 5
v 10 0 -0
v 10 5 5
v 10 5 -0
v 10 20 5
v 10 20 -0
v 10 25 5
v 10 25 -0
v 20 10 5
v 20 10 -0
v 20 15 5
v 20 15 -0
v -25 10 5
v -25 10 -0
v -25 15 5
v -25 15 -0
v -15 0 5
v -15 0 -0
v -15 5 5
v -15 5 -0
v -15 20 5
v -15 20 -0
v -15 25 5
v -15 25 -0
v -10 5 5
v -10 5 -0
v -10 10 -0
v -10 20 5
v -10 20 -0
v 15 10 5
v 15 10 -0
v 15 15 5
v 15 15 -0
v 25 0 5
v 25 0 -0
v 25 5 5
v 25 5 -0
v 25 10 -0
v 25 10 -5
v 25 20 5
v 25 20 -0
v 25 25 5
v 25 25 -0
v 25 25 -5
v 30 5 5
v 30 5 -0
v 30 20 5
v 30 20 -0
v 30 25 -0
v 30 25 -5
v 30 30 -0
v 30 30 -5
v 35 30 -0
v 35 30 -5
v 35 35 -0
v 35 35 -5
v 40 35 -0
v 40 35 -5
v 40 45 -0
v 40 45 -5
v 40 50 -0
v 40 50 -5
v -35 5 5
v -35 20 5
v -30 0 5
v -30 5 5
v -30 20 5
v -30 25 5
v -25 10 5
v -25 15 5
v -20 10 5
v -20 15 5
v -15 0 5
v -15 5 5
v -15 20 5
v -15 25 5
v -10 5 5
v -10 20 5
v 5 5 5
v 5 20 5
v 10 0 5
v 10 5 5
v 10 20 5
v 10 25 5
v 15 10 5
v 15 15 5
v 20 10 5
v 20 15 5
v 25 0 5
v 25 5 5
v 25 20 5
v 25 25 5
v 30 5 5
v 30 20 5
v -40 35 -0
v -40 45 -0
v -40 50 -0
v -35 30 -0
v -35 35 -0
v -35 40 -0
v -30 25 -0
v -30 30 -0
v -30 35 -0
v -30 40 -0
v -25 10 -0
v -25 15 -0
v -20 10 -0
v -20 15 -0
v -15 20 -0
v -15 25 -0
v -10 10 -0
v -10 20 -0
v 5 10 -0
v 5 20 -0
v 10 20 -0
v 10 25 -0
v 15 10 -0
v 15 15 -0
v 20 10 -0
v 20 15 -0
v 25 25 -0
v 30 25 -0
v 30 30 -0
v 30 35 -0
v 30 40 -0
v 35 30 -0
v 35 35 -0
v 35 40 -0
v 40 35 -0
v 40 45 -0
v 40 50 -0
v -35 5 -0
v -35 20 -0
v -30 0 -0
v -30 5 -0
v -30 20 -0
v -30 25 -0
v -25 10 -0
v -25 25 -0
v -15 0 -0
v -15 5 -0
v -10 5 -0
v -10 10 -0
v 5 5 -0
v 5 10 -0
v 10 0 -0
v 10 5 -0
v 25 0 -0
v 25 5 -0
v 25 10 -0
v 25 20 -0
v 30 5 -0
v 30 20 -0
v -40 35 -5
v -40 45 -5
v -40 50 -5
v -35 30 -5
v -35 35 -5
v -35 40 -5
v -30 25 -5
v -30 30 -5
v -30 35 -5
v -30 40 -5
v -25 10 -5
v -25 25 -5
v 25 10 -5
v 25 25 -5
v 30 25 -5
v 30 30 -5
v 30 35 -5
v 30 40 -5
v 35 30 -5
v 35 35 -5
v 35 40 -5
v 40 35 -5
v 40 45 -5
v 40 50 -5
v -30 0 5
v -15 0 5
v 10 0 5
v 25 0 5
v -30 0 -0
v -15 0 -0
v 10 0 -0
v 25 0 -0
v -35 5 5
v -30 5 5
v -15 5 5
v -10 5 5
v 5 5 5
v 10 5 5
v 25 5 5
v 30 5 5
v -35 5 -0
v -30 5 -0
v -15 5 -0
v -10 5 -0
v 5 5 -0
v 10 5 -0
v 25 5 -0
v 30 5 -0
v -25 10 -0
v -10 10 -0
v 5 10 -0
v 25 10 -0
v -25 10 -5
v 25 10 -5
v -25 15 5
v -20 15 5
v 15 15 5
v 20 15 5
v -25 15 -0
v -20 15 -0
v 15 15 -0
v 20 15 -0
v -30 25 -0
v -25 25 -0
v 25 25 -0
v 30 25 -0
v -30 25 -5
v -25 25 -5
v 25 25 -5
v 30 25 -5
v -35 30 -0
v -30 30 -0
v 30 30 -0
v 35 30 -0
v -35 30 -5
v -30 30 -5
v 30 30 -5
v 35 30 -5
v -40 35 -0
v -35 35 -0
v 35 35 -0
v 40 35 -0
v -40 35 -5
v -35 35 -5
v 35 35 -5
v 40 35 -5
v -25 10 5
v -20 10 5
v 15 10 5
v 20 10 5
v -25 10 -0
v -20 10 -0
v 15 10 -0
v 20 10 -0
v -35 20 5
v -30 20 5
v -15 20 5
v -10 20 5
v 5 20 5
v 10 20 5
v 25 20 5
v 30 20 5
v -35 20 -0
v -30 20 -0
v -15 20 -0
v -10 20 -0
v 5 20 -0
v 10 20 -0
v 25 20 -0
v 30 20 -0
v -30 25 5
v -15 25 5
v 10 25 5
v 25 25 5
v -30 25 -0
v -15 25 -0
v 10 25 -0
v 25 25 -0
v -40 50 -0
v 40 50 -0
v -40 50 -5
v 40 50 -5

# faces
f 3/2/1 2/2/1 1/2/1
f 4/2/1 2/2/1 3/2/1
f 5/3/1 4/3/1 3/3/1
f 6/3/1 4/3/1 5/3/1
f 9/1/1 8/1/1 7/1/1
f 10/1/1 8/1/1 9/1/1
f 13/2/1 12/2/1 11/2/1
f 14/2/1 12/2/1 13/2/1
f 17/1/1 16/1/1 15/1/1
f 18/1/1 16/1/1 17/1/1
f 21/1/1 20/1/1 19/1/1
f 22/1/1 20/1/1 21/1/1
f 24/2/1 23/2/1 22/2/1
f 25/2/1 23/2/1 24/2/1
f 28/2/1 27/2/1 26/2/1
f 29/2/1 27/2/1 28/2/1
f 32/1/1 31/1/1 30/1/1
f 33/1/1 31/1/1 32/1/1
f 36/1/1 35/1/1 34/1/1
f 37/1/1 36/1/1 34/1/1
f 38/1/1 36/1/1 37/1/1
f 41/1/1 40/1/1 39/1/1
f 42/1/1 40/1/1 41/1/1
f 45/1/1 44/1/1 43/1/1
f 46/1/1 44/1/1 45/1/1
f 49/1/1 48/1/1 47/1/1
f 50/1/1 48/1/1 49/1/1
f 51/1/2 52/1/2 53/1/2
f 53/1/2 52/1/2 54/1/2
f 55/1/2 56/1/2 57/1/2
f 57/1/2 56/1/2 58/1/2
f 59/1/2 60/1/2 61/1/2
f 61/1/2 60/1/2 62/1/2
f 63/1/2 64/1/2 65/1/2
f 63/1/2 65/1/2 66/1/2
f 66/1/2 65/1/2 67/1/2
f 68/1/2 69/1/2 70/1/2
f 70/1/2 69/1/2 71/1/2
f 72/1/2 73/1/2 74/1/2
f 74/1/2 73/1/2 75/1/2
f 76/2/2 77/2/2 79/2/2
f 78/1/2 79/1/2 80/1/2
f 79/2/2 77/2/2 81/2/2
f 80/1/2 79/1/2 81/1/2
f 81/2/2 77/2/2 82/2/2
f 83/1/2 84/1/2 85/1/2
f 85/1/2 84/1/2 86/1/2
f 87/2/2 88/2/2 89/2/2
f 89/2/2 88/2/2 90/2/2
f 91/2/2 92/2/2 93/2/2
f 93/2/2 92/2/2 94/2/2
f 95/2/2 96/2/2 97/2/2
f 97/2/2 96/2/2 98/2/2
f 97/3/2 98/3/2 99/3/2
f 99/3/2 98/3/2 100/3/2
f 104/1/3 102/1/3 101/1/3
f 105/1/3 102/1/3 104/1/3
f 107/1/3 104/1/3 103/1/3
f 107/1/3 106/1/3 105/1/3
f 107/1/3 105/1/3 104/1/3
f 108/1/3 106/1/3 107/1/3
f 109/1/3 107/1/3 103/1/3
f 110/1/3 106/1/3 108/1/3
f 111/1/3 109/1/3 103/1/3
f 111/1/3 110/1/3 109/1/3
f 112/1/3 110/1/3 111/1/3
f 113/1/3 106/1/3 110/1/3
f 113/1/3 110/1/3 112/1/3
f 114/1/3 106/1/3 113/1/3
f 115/1/3 113/1/3 112/1/3
f 116/1/3 113/1/3 115/1/3
f 120/1/3 118/1/3 117/1/3
f 121/1/3 118/1/3 120/1/3
f 123/1/3 121/1/3 120/1/3
f 123/1/3 122/1/3 121/1/3
f 123/1/3 120/1/3 119/1/3
f 124/1/3 122/1/3 123/1/3
f 125/1/3 123/1/3 119/1/3
f 126/1/3 122/1/3 124/1/3
f 127/1/3 125/1/3 119/1/3
f 127/1/3 126/1/3 125/1/3
f 128/1/3 126/1/3 127/1/3
f 129/1/3 122/1/3 126/1/3
f 129/1/3 126/1/3 128/1/3
f 130/1/3 122/1/3 129/1/3
f 131/1/3 129/1/3 128/1/3
f 132/1/3 129/1/3 131/1/3
f 137/2/3 134/2/3 133/2/3
f 138/2/3 134/2/3 137/2/3
f 140/2/3 137/2/3 136/2/3
f 141/3/3 138/3/3 137/3/3
f 141/2/3 137/2/3 140/2/3
f 142/2/3 134/2/3 138/2/3
f 142/3/3 138/3/3 141/3/3
f 145/2/3 144/2/3 143/2/3
f 146/2/3 144/2/3 145/2/3
f 148/2/3 141/2/3 140/2/3
f 148/2/3 140/2/3 139/2/3
f 148/2/3 142/2/3 141/2/3
f 150/2/3 148/2/3 147/2/3
f 151/2/3 150/2/3 149/2/3
f 152/2/3 148/2/3 150/2/3
f 152/2/3 150/2/3 151/2/3
f 153/2/3 148/2/3 152/2/3
f 154/2/3 142/2/3 148/2/3
f 154/2/3 148/2/3 153/2/3
f 157/2/3 156/2/3 155/2/3
f 158/2/3 156/2/3 157/2/3
f 159/2/3 142/2/3 154/2/3
f 160/2/3 142/2/3 159/2/3
f 161/2/3 142/2/3 160/2/3
f 162/2/3 142/2/3 161/2/3
f 163/2/3 134/2/3 142/2/3
f 163/2/3 142/2/3 162/2/3
f 164/2/3 162/2/3 161/2/3
f 165/3/3 163/3/3 162/3/3
f 165/2/3 162/2/3 164/2/3
f 166/2/3 134/2/3 163/2/3
f 166/3/3 163/3/3 165/3/3
f 167/2/3 166/2/3 165/2/3
f 168/3/3 135/3/3 134/3/3
f 168/2/3 166/2/3 167/2/3
f 168/2/3 134/2/3 166/2/3
f 169/3/3 135/3/3 168/3/3
f 170/1/4 171/1/4 173/1/4
f 173/1/4 171/1/4 174/1/4
f 172/1/4 173/1/4 176/1/4
f 174/1/4 175/1/4 176/1/4
f 173/1/4 174/1/4 176/1/4
f 176/1/4 175/1/4 177/1/4
f 172/1/4 176/1/4 178/1/4
f 178/1/4 176/1/4 179/1/4
f 179/1/4 176/1/4 180/1/4
f 180/1/4 176/1/4 181/1/4
f 182/1/4 183/1/4 185/1/4
f 184/1/4 185/1/4 186/1/4
f 185/1/4 183/1/4 187/1/4
f 186/1/4 185/1/4 187/1/4
f 187/1/4 183/1/4 188/1/4
f 187/1/4 188/1/4 190/1/4
f 188/1/4 189/1/4 190/1/4
f 190/1/4 189/1/4 191/1/4
f 192/2/4 193/2/4 196/2/4
f 196/2/4 193/2/4 197/2/4
f 195/2/4 196/2/4 199/2/4
f 196/3/4 197/3/4 200/3/4
f 199/2/4 196/2/4 200/2/4
f 197/2/4 193/2/4 201/2/4
f 200/3/4 197/3/4 201/3/4
f 199/2/4 200/2/4 203/2/4
f 198/2/4 199/2/4 203/2/4
f 200/2/4 201/2/4 203/2/4
f 202/2/4 203/2/4 204/2/4
f 203/2/4 201/2/4 205/2/4
f 204/2/4 203/2/4 205/2/4
f 205/2/4 201/2/4 206/2/4
f 206/2/4 201/2/4 207/2/4
f 207/2/4 201/2/4 208/2/4
f 201/2/4 193/2/4 209/2/4
f 208/2/4 201/2/4 209/2/4
f 207/2/4 208/2/4 210/2/4
f 208/3/4 209/3/4 211/3/4
f 210/2/4 208/2/4 211/2/4
f 209/2/4 193/2/4 212/2/4
f 211/3/4 209/3/4 212/3/4
f 211/2/4 212/2/4 213/2/4
f 193/3/4 194/3/4 214/3/4
f 213/2/4 212/2/4 214/2/4
f 212/2/4 193/2/4 214/2/4
f 214/3/4 194/3/4 215/3/4
f 220/1/5 217/1/5 216/1/5
f 221/1/5 217/1/5 220/1/5
f 222/1/5 219/1/5 218/1/5
f 223/1/5 219/1/5 222/1/5
f 232/1/5 225/1/5 224/1/5
f 233/1/5 225/1/5 232/1/5
f 234/1/5 227/1/5 226/1/5
f 235/1/5 227/1/5 234/1/5
f 236/1/5 229/1/5 228/1/5
f 237/1/5 229/1/5 236/1/5
f 238/1/5 231/1/5 230/1/5
f 239/1/5 231/1/5 238/1/5
f 244/2/5 241/2/5 240/2/5
f 244/2/5 243/2/5 242/2/5
f 244/2/5 242/2/5 241/2/5
f 245/2/5 243/2/5 244/2/5
f 250/1/5 247/1/5 246/1/5
f 251/1/5 247/1/5 250/1/5
f 252/1/5 249/1/5 248/1/5
f 253/1/5 249/1/5 252/1/5
f 258/2/5 255/2/5 254/2/5
f 259/2/5 255/2/5 258/2/5
f 260/2/5 257/2/5 256/2/5
f 261/2/5 257/2/5 260/2/5
f 266/2/5 263/2/5 262/2/5
f 267/2/5 263/2/5 266/2/5
f 268/2/5 265/2/5 264/2/5
f 269/2/5 265/2/5 268/2/5
f 274/2/5 271/2/5 270/2/5
f 275/2/5 271/2/5 274/2/5
f 276/2/5 273/2/5 272/2/5
f 277/2/5 273/2/5 276/2/5
f 278/1/6 279/1/6 282/1/6
f 282/1/6 279/1/6 283/1/6
f 280/1/6 281/1/6 284/1/6
f 284/1/6 281/1/6 285/1/6
f 286/1/6 287/1/6 294/1/6
f 294/1/6 287/1/6 295/1/6
f 288/1/6 289/1/6 296/1/6
f 296/1/6 289/1/6 297/1/6
f 290/1/6 291/1/6 298/1/6
f 298/1/6 291/1/6 299/1/6
f 292/1/6 293/1/6 300/1/6
f 300/1/6 293/1/6 301/1/6
f 302/1/6 303/1/6 306/1/6
f 306/1/6 303/1/6 307/1/6
f 304/1/6 305/1/6 308/1/6
f 308/1/6 305/1/6 309/1/6
f 310/3/6 311/3/6 312/3/6
f 312/3/6 311/3/6 313/3/6
