# MagicaVoxel @ Ephtracy

# material
mtllib miner.mtl
usemtl palette

# normals
vn -1 0 0
vn 1 0 0
vn 0 0 1
vn 0 0 -1
vn 0 -1 0
vn 0 1 0

# texcoords
vt 0.00195312 0.5
vt 0.00585938 0.5
vt 0.00976562 0.5
vt 0.0136719 0.5
vt 0.0175781 0.5
vt 0.0214844 0.5

# verts
v -3.5 6 -0
v -3.5 6 -1
v -3.5 8 -0
v -3.5 8 -1
v -3.5 10 -0
v -3.5 10 -1
v -2.5 12 -0
v -2.5 12 -1
v -2.5 13 -0
v -2.5 13 -1
v -1.5 0 -0
v -1.5 0 -1
v -1.5 1 -0
v -1.5 1 -1
v -1.5 5 -0
v -1.5 5 -1
v -1.5 6 -0
v -1.5 6 -1
v -1.5 9 -0
v -1.5 9 -1
v -1.5 10 1
v -1.5 10 -0
v -1.5 12 -0
v -1.5 13 1
v -1.5 13 -0
v -1.5 13 -1
v -1.5 14 -0
v -1.5 14 -1
v -0.5 10 -0
v -0.5 10 -1
v -0.5 12 -0
v -0.5 12 -1
v 0.5 0 -0
v 0.5 0 -1
v 0.5 1 -0
v 0.5 1 -1
v 0.5 4 -0
v 0.5 4 -1
v 0.5 11 1
v 0.5 11 -0
v 0.5 12 1
v 0.5 12 -0
v 1.5 12 -0
v 1.5 12 -1
v 1.5 13 -0
v 1.5 13 -1
v 2.5 6 -0
v 2.5 6 -1
v 2.5 8 -0
v 2.5 8 -1
v 2.5 9 -0
v 2.5 9 -1
v -2.5 6 -0
v -2.5 6 -1
v -2.5 8 -0
v -2.5 8 -1
v -2.5 9 -0
v -2.5 9 -1
v -1.5 12 -0
v -1.5 12 -1
v -1.5 13 -0
v -1.5 13 -1
v -0.5 0 -0
v -0.5 0 -1
v -0.5 1 -0
v -0.5 1 -1
v -0.5 4 -0
v -0.5 4 -1
v -0.5 11 1
v -0.5 11 -0
v -0.5 12 1
v -0.5 12 -0
v 0.5 10 -0
v 0.5 10 -1
v 0.5 12 -0
v 0.5 12 -1
v 1.5 0 -0
v 1.5 0 -1
v 1.5 1 -0
v 1.5 1 -1
v 1.5 5 -0
v 1.5 5 -1
v 1.5 6 -0
v 1.5 6 -1
v 1.5 9 -0
v 1.5 9 -1
v 1.5 10 1
v 1.5 10 -0
v 1.5 12 -0
v 1.5 13 1
v 1.5 13 -0
v 1.5 13 -1
v 1.5 14 -0
v 1.5 14 -1
v 2.5 12 -0
v 2.5 12 -1
v 2.5 13 -0
v 2.5 13 -1
v 3.5 6 -0
v 3.5 6 -1
v 3.5 8 -0
v 3.5 8 -1
v 3.5 10 -0
v 3.5 10 -1
v -1.5 10 1
v -1.5 13 1
v -0.5 11 1
v -0.5 12 1
v 0.5 11 1
v 0.5 12 1
v 1.5 10 1
v 1.5 13 1
v -3.5 6 -0
v -3.5 8 -0
v -3.5 10 -0
v -2.5 6 -0
v -2.5 8 -0
v -2.5 9 -0
v -2.5 12 -0
v -2.5 13 -0
v -1.5 0 -0
v -1.5 1 -0
v -1.5 5 -0
v -1.5 6 -0
v -1.5 9 -0
v -1.5 10 -0
v -1.5 12 -0
v -1.5 13 -0
v -1.5 14 -0
v -0.5 0 -0
v -0.5 1 -0
v -0.5 4 -0
v -0.5 5 -0
v -0.5 6 -0
v -0.5 11 -0
v -0.5 12 -0
v 0.5 0 -0
v 0.5 1 -0
v 0.5 4 -0
v 0.5 5 -0
v 0.5 6 -0
v 0.5 11 -0
v 0.5 12 -0
v 1.5 0 -0
v 1.5 1 -0
v 1.5 5 -0
v 1.5 6 -0
v 1.5 9 -0
v 1.5 10 -0
v 1.5 12 -0
v 1.5 13 -0
v 1.5 14 -0
v 2.5 6 -0
v 2.5 8 -0
v 2.5 9 -0
v 2.5 12 -0
v 2.5 13 -0
v 3.5 6 -0
v 3.5 8 -0
v 3.5 10 -0
v -1.5 10 -0
v -1.5 12 -0
v -1.5 13 -0
v -0.5 10 -0
v -0.5 12 -0
v 0.5 10 -0
v 0.5 12 -0
v 1.5 10 -0
v 1.5 12 -0
v 1.5 13 -0
v -3.5 6 -1
v -3.5 8 -1
v -3.5 10 -1
v -2.5 6 -1
v -2.5 8 -1
v -2.5 9 -1
v -2.5 12 -1
v -2.5 13 -1
v -1.5 0 -1
v -1.5 1 -1
v -1.5 5 -1
v -1.5 6 -1
v -1.5 9 -1
v -1.5 12 -1
v -1.5 13 -1
v -1.5 14 -1
v -0.5 0 -1
v -0.5 1 -1
v -0.5 4 -1
v -0.5 5 -1
v -0.5 6 -1
v -0.5 10 -1
v -0.5 12 -1
v 0.5 0 -1
v 0.5 1 -1
v 0.5 4 -1
v 0.5 5 -1
v 0.5 6 -1
v 0.5 10 -1
v 0.5 12 -1
v 1.5 0 -1
v 1.5 1 -1
v 1.5 5 -1
v 1.5 6 -1
v 1.5 9 -1
v 1.5 12 -1
v 1.5 13 -1
v 1.5 14 -1
v 2.5 6 -1
v 2.5 8 -1
v 2.5 9 -1
v 2.5 12 -1
v 2.5 13 -1
v 3.5 6 -1
v 3.5 8 -1
v 3.5 10 -1
v -1.5 0 -0
v -0.5 0 -0
v 0.5 0 -0
v 1.5 0 -0
v -1.5 0 -1
v -0.5 0 -1
v 0.5 0 -1
v 1.5 0 -1
v -0.5 4 -0
v 0.5 4 -0
v -0.5 4 -1
v 0.5 4 -1
v -3.5 6 -0
v -2.5 6 -0
v 2.5 6 -0
v 3.5 6 -0
v -3.5 6 -1
v -2.5 6 -1
v 2.5 6 -1
v 3.5 6 -1
v -2.5 9 -0
v -1.5 9 -0
v 1.5 9 -0
v 2.5 9 -0
v -2.5 9 -1
v -1.5 9 -1
v 1.5 9 -1
v 2.5 9 -1
v -1.5 10 1
v 1.5 10 1
v -1.5 10 -0
v 1.5 10 -0
v -0.5 12 1
v 0.5 12 1
v -2.5 12 -0
v -1.5 12 -0
v -0.5 12 -0
v 0.5 12 -0
v 1.5 12 -0
v 2.5 12 -0
v -2.5 12 -1
v -1.5 12 -1
v 1.5 12 -1
v 2.5 12 -1
v -1.5 13 -0
v 1.5 13 -0
v -1.5 13 -1
v 1.5 13 -1
v -3.5 10 -0
v -1.5 10 -0
v -0.5 10 -0
v 0.5 10 -0
v 1.5 10 -0
v 3.5 10 -0
v -3.5 10 -1
v -0.5 10 -1
v 0.5 10 -1
v 3.5 10 -1
v -0.5 11 1
v 0.5 11 1
v -0.5 11 -0
v 0.5 11 -0
v -0.5 12 -0
v 0.5 12 -0
v -0.5 12 -1
v 0.5 12 -1
v -1.5 13 1
v 1.5 13 1
v -2.5 13 -0
v -1.5 13 -0
v 1.5 13 -0
v 2.5 13 -0
v -2.5 13 -1
v -1.5 13 -1
v 1.5 13 -1
v 2.5 13 -1
v -1.5 14 -0
v 1.5 14 -0
v -1.5 14 -1
v 1.5 14 -1

# faces
f 3/1/1 2/1/1 1/1/1
f 4/1/1 2/1/1 3/1/1
f 5/5/1 4/5/1 3/5/1
f 6/5/1 4/5/1 5/5/1
f 9/6/1 8/6/1 7/6/1
f 10/6/1 8/6/1 9/6/1
f 13/2/1 12/2/1 11/2/1
f 14/2/1 12/2/1 13/2/1
f 15/3/1 14/3/1 13/3/1
f 16/3/1 14/3/1 15/3/1
f 17/4/1 16/4/1 15/4/1
f 18/4/1 16/4/1 17/4/1
f 19/5/1 18/5/1 17/5/1
f 20/5/1 18/5/1 19/5/1
f 23/1/1 22/1/1 21/1/1
f 24/1/1 23/1/1 21/1/1
f 25/1/1 23/1/1 24/1/1
f 27/6/1 26/6/1 25/6/1
f 28/6/1 26/6/1 27/6/1
f 31/1/1 30/1/1 29/1/1
f 32/1/1 30/1/1 31/1/1
f 35/2/1 34/2/1 33/2/1
f 36/2/1 34/2/1 35/2/1
f 37/3/1 36/3/1 35/3/1
f 38/3/1 36/3/1 37/3/1
f 41/1/1 40/1/1 39/1/1
f 42/1/1 40/1/1 41/1/1
f 45/6/1 44/6/1 43/6/1
f 46/6/1 44/6/1 45/6/1
f 49/1/1 48/1/1 47/1/1
f 50/1/1 48/1/1 49/1/1
f 51/5/1 50/5/1 49/5/1
f 52/5/1 50/5/1 51/5/1
f 53/1/2 54/1/2 55/1/2
f 55/1/2 54/1/2 56/1/2
f 55/5/2 56/5/2 57/5/2
f 57/5/2 56/5/2 58/5/2
f 59/6/2 60/6/2 61/6/2
f 61/6/2 60/6/2 62/6/2
f 63/2/2 64/2/2 65/2/2
f 65/2/2 64/2/2 66/2/2
f 65/3/2 66/3/2 67/3/2
f 67/3/2 66/3/2 68/3/2
f 69/1/2 70/1/2 71/1/2
f 71/1/2 70/1/2 72/1/2
f 73/1/2 74/1/2 75/1/2
f 75/1/2 74/1/2 76/1/2
f 77/2/2 78/2/2 79/2/2
f 79/2/2 78/2/2 80/2/2
f 79/3/2 80/3/2 81/3/2
f 81/3/2 80/3/2 82/3/2
f 81/4/2 82/4/2 83/4/2
f 83/4/2 82/4/2 84/4/2
f 83/5/2 84/5/2 85/5/2
f 85/5/2 84/5/2 86/5/2
f 87/1/2 88/1/2 89/1/2
f 87/1/2 89/1/2 90/1/2
f 90/1/2 89/1/2 91/1/2
f 91/6/2 92/6/2 93/6/2
f 93/6/2 92/6/2 94/6/2
f 95/6/2 96/6/2 97/6/2
f 97/6/2 96/6/2 98/6/2
f 99/1/2 100/1/2 101/1/2
f 101/1/2 100/1/2 102/1/2
f 101/5/2 102/5/2 103/5/2
f 103/5/2 102/5/2 104/5/2
f 107/1/3 106/1/3 105/1/3
f 108/1/3 106/1/3 107/1/3
f 109/1/3 107/1/3 105/1/3
f 110/1/3 106/1/3 108/1/3
f 111/1/3 109/1/3 105/1/3
f 111/1/3 110/1/3 109/1/3
f 112/1/3 106/1/3 110/1/3
f 112/1/3 110/1/3 111/1/3
f 116/1/3 114/1/3 113/1/3
f 117/5/3 115/5/3 114/5/3
f 117/1/3 114/1/3 116/1/3
f 118/5/3 115/5/3 117/5/3
f 125/5/3 115/5/3 118/5/3
f 126/5/3 115/5/3 125/5/3
f 127/6/3 120/6/3 119/6/3
f 128/6/3 120/6/3 127/6/3
f 130/2/3 122/2/3 121/2/3
f 131/3/3 123/3/3 122/3/3
f 131/2/3 122/2/3 130/2/3
f 132/3/3 123/3/3 131/3/3
f 133/4/3 124/4/3 123/4/3
f 133/3/3 123/3/3 132/3/3
f 134/5/3 126/5/3 125/5/3
f 134/4/3 124/4/3 133/4/3
f 134/5/3 125/5/3 124/5/3
f 139/3/3 133/3/3 132/3/3
f 140/2/3 134/2/3 133/2/3
f 140/3/3 133/3/3 139/3/3
f 141/5/3 126/5/3 134/5/3
f 141/2/3 134/2/3 140/2/3
f 142/1/3 136/1/3 135/1/3
f 143/1/3 136/1/3 142/1/3
f 144/2/3 138/2/3 137/2/3
f 145/3/3 140/3/3 139/3/3
f 145/2/3 138/2/3 144/2/3
f 145/3/3 139/3/3 138/3/3
f 146/4/3 141/4/3 140/4/3
f 146/3/3 140/3/3 145/3/3
f 147/5/3 126/5/3 141/5/3
f 147/4/3 141/4/3 146/4/3
f 148/5/3 126/5/3 147/5/3
f 149/5/3 126/5/3 148/5/3
f 151/6/3 129/6/3 128/6/3
f 152/6/3 129/6/3 151/6/3
f 155/5/3 149/5/3 148/5/3
f 156/6/3 151/6/3 150/6/3
f 157/6/3 151/6/3 156/6/3
f 158/1/3 154/1/3 153/1/3
f 159/5/3 155/5/3 154/5/3
f 159/1/3 154/1/3 158/1/3
f 160/5/3 149/5/3 155/5/3
f 160/5/3 155/5/3 159/5/3
f 161/1/4 162/1/4 164/1/4
f 162/1/4 163/1/4 164/1/4
f 164/1/4 163/1/4 165/1/4
f 165/1/4 163/1/4 167/1/4
f 166/1/4 167/1/4 168/1/4
f 167/1/4 163/1/4 169/1/4
f 168/1/4 167/1/4 169/1/4
f 169/1/4 163/1/4 170/1/4
f 171/1/4 172/1/4 174/1/4
f 172/5/4 173/5/4 175/5/4
f 174/1/4 172/1/4 175/1/4
f 175/5/4 173/5/4 176/5/4
f 176/5/4 173/5/4 183/5/4
f 177/6/4 178/6/4 184/6/4
f 184/6/4 178/6/4 185/6/4
f 179/2/4 180/2/4 187/2/4
f 180/3/4 181/3/4 188/3/4
f 187/2/4 180/2/4 188/2/4
f 188/3/4 181/3/4 189/3/4
f 181/4/4 182/4/4 190/4/4
f 189/3/4 181/3/4 190/3/4
f 182/5/4 183/5/4 191/5/4
f 190/4/4 182/4/4 191/4/4
f 183/5/4 173/5/4 192/5/4
f 191/5/4 183/5/4 192/5/4
f 189/3/4 190/3/4 196/3/4
f 190/2/4 191/2/4 197/2/4
f 196/3/4 190/3/4 197/3/4
f 191/5/4 192/5/4 198/5/4
f 197/2/4 191/2/4 198/2/4
f 192/1/4 193/1/4 199/1/4
f 198/5/4 192/5/4 199/5/4
f 199/1/4 193/1/4 200/1/4
f 194/2/4 195/2/4 201/2/4
f 195/3/4 196/3/4 202/3/4
f 201/2/4 195/2/4 202/2/4
f 196/3/4 197/3/4 202/3/4
f 197/4/4 198/4/4 203/4/4
f 202/3/4 197/3/4 203/3/4
f 198/5/4 199/5/4 204/5/4
f 203/4/4 198/4/4 204/4/4
f 204/5/4 199/5/4 205/5/4
f 185/6/4 186/6/4 207/6/4
f 207/6/4 186/6/4 208/6/4
f 205/5/4 199/5/4 211/5/4
f 206/6/4 207/6/4 212/6/4
f 212/6/4 207/6/4 213/6/4
f 209/1/4 210/1/4 214/1/4
f 210/5/4 211/5/4 215/5/4
f 214/1/4 210/1/4 215/1/4
f 211/5/4 199/5/4 216/5/4
f 215/5/4 211/5/4 216/5/4
f 221/2/5 218/2/5 217/2/5
f 222/2/5 218/2/5 221/2/5
f 223/2/5 220/2/5 219/2/5
f 224/2/5 220/2/5 223/2/5
f 227/3/5 226/3/5 225/3/5
f 228/3/5 226/3/5 227/3/5
f 233/1/5 230/1/5 229/1/5
f 234/1/5 230/1/5 233/1/5
f 235/1/5 232/1/5 231/1/5
f 236/1/5 232/1/5 235/1/5
f 241/5/5 238/5/5 237/5/5
f 242/5/5 238/5/5 241/5/5
f 243/5/5 240/5/5 239/5/5
f 244/5/5 240/5/5 243/5/5
f 247/1/5 246/1/5 245/1/5
f 248/1/5 246/1/5 247/1/5
f 253/1/5 250/1/5 249/1/5
f 254/1/5 250/1/5 253/1/5
f 257/6/5 252/6/5 251/6/5
f 258/6/5 252/6/5 257/6/5
f 259/6/5 256/6/5 255/6/5
f 260/6/5 256/6/5 259/6/5
f 263/6/5 262/6/5 261/6/5
f 264/6/5 262/6/5 263/6/5
f 265/5/6 266/5/6 271/5/6
f 266/5/6 267/5/6 271/5/6
f 271/5/6 267/5/6 272/5/6
f 269/5/6 270/5/6 273/5/6
f 268/5/6 269/5/6 273/5/6
f 273/5/6 270/5/6 274/5/6
f 275/1/6 276/1/6 277/1/6
f 277/1/6 276/1/6 278/1/6
f 279/1/6 280/1/6 281/1/6
f 281/1/6 280/1/6 282/1/6
f 283/1/6 284/1/6 286/1/6
f 286/1/6 284/1/6 287/1/6
f 285/6/6 286/6/6 289/6/6
f 289/6/6 286/6/6 290/6/6
f 287/6/6 288/6/6 291/6/6
f 291/6/6 288/6/6 292/6/6
f 293/6/6 294/6/6 295/6/6
f 295/6/6 294/6/6 296/6/6
